<svg xmlns="http://www.w3.org/2000/svg" width="512" height="512" viewBox="0 0 512 512" role="img" aria-label="CSCU logo">
  <defs>
    <linearGradient id="g" x1="0" y1="0" x2="1" y2="1">
      <stop offset="0" stop-color="#0ea5e9"/>
      <stop offset="1" stop-color="#22c55e"/>
    </linearGradient>
  </defs>
  <rect width="512" height="512" rx="120" fill="url(#g)"/>
  <path d="M256 92c80 0 148 52 172 124-44 24-104 38-172 38s-128-14-172-38C108 144 176 92 256 92z" fill="rgba(255,255,255,.20)"/>
  <path d="M124 230c40 22 92 34 132 34s92-12 132-34v18c0 74-60 134-134 134h-4c-74 0-134-60-134-134v-18z" fill="rgba(255,255,255,.14)"/>
  <text x="256" y="300" text-anchor="middle" font-family="ui-sans-serif,Segoe UI,Arial" font-size="86" font-weight="900" fill="#06141e">
    CSCU
  </text>
  <text x="256" y="350" text-anchor="middle" font-family="ui-sans-serif,Segoe UI,Arial" font-size="24" font-weight="700" fill="rgba(6,20,30,.72)">
    Computer Science Club (University)
  </text>
</svg>
